<svg xmlns="http://www.w3.org/2000/svg" width="205.97" height="8.84" viewBox="0 0 205.97 8.84"><path d="M7.32 2.2c0 .37 0 .7.03.92h-.27C6.68 1.1 6.04.44 4.92.44h-.26V7.3c0 .97.22 1.1 1.28 1.13v.24c-.5-.02-1.4-.04-2.28-.04s-1.72.02-2.2.04v-.24c1.07-.02 1.3-.16 1.3-1.13V.45h-.28C1.35.45.73 1.1.32 3.12H.05c.02-.22.03-.55.03-.9C.08 1.8.06.97 0 .16 1.08.2 2.64.2 3.7.2S6.33.2 7.4.17c-.06.8-.08 1.64-.08 2.04zM16.9.4c-.76.04-.9.17-.9 1.04V7.4c0 .87.15 1 .9 1.02v.25c-.38-.03-1.07-.04-1.8-.04-.7 0-1.45 0-1.9.04v-.24c.77-.04.9-.16.9-1.04V4.5h-3.18v2.9c0 .87.14 1 .9 1.03v.24c-.43-.03-1.15-.04-1.8-.04-.78 0-1.5 0-1.9.04v-.24c.76-.04.9-.16.9-1.03V1.44c0-.87-.15-1-.9-1.03V.18C8.5.2 9.23.2 10 .2c.65 0 1.37 0 1.8-.03V.4c-.77.05-.9.17-.9 1.04v2.83h3.18V1.44c0-.87-.14-1-.9-1.03V.18c.45.02 1.2.04 1.9.04.73 0 1.42 0 1.8-.03V.4zM24.38 8.67c-.82-.04-1.94-.04-2.75-.04-.8 0-2.6 0-3.9.04v-.24c.75-.04.88-.16.88-1.03V1.44c0-.87-.13-1-.88-1.03V.18c1.3.04 3.1.04 3.9.04.74 0 1.78 0 2.5-.03-.04.7-.07 1.43-.07 1.77 0 .32 0 .63.04.82h-.3C23.58 1 22.96.45 21.85.45h-.5c-.7 0-.8.1-.8.85v2.97h.37c.97 0 1.3-.93 1.44-1.58h.28c-.04.5-.04.84-.04 1.12v.57c0 .4 0 .78.07 1.7h-.27c-.13-.84-.5-1.6-1.47-1.6h-.37v3.03c0 .75.12.86.82.86h.6c1.07 0 1.8-.63 2.1-2.57h.28c-.03.26-.04.62-.04 1 0 .37 0 1.12.07 1.84zM36.5 4.32c0 2.62-1.76 4.35-4.78 4.35-.37 0-1.2-.04-1.75-.04-.7 0-1.44 0-1.84.04v-.24c.76-.04.9-.16.9-1.03V1.44c0-.87-.15-1-.9-1.03V.18c.32.02.88.04 1.44.04h.38l1.88-.03c3.16 0 4.67 1.48 4.67 4.15zm-5.57-2.9v6c0 .84.16 1.03.9 1.03 2.02 0 2.68-1.47 2.68-4.08 0-2.7-.74-3.98-2.68-3.98-.73 0-.9.2-.9 1.02zM41.04.4c-.77.04-.9.17-.9 1.04V7.4c0 .87.14 1 .9 1.02v.25c-.43-.03-1.15-.04-1.82-.04-.76 0-1.48 0-1.9.04v-.24c.77-.04.9-.16.9-1.04V1.43c0-.87-.13-1-.9-1.03V.18c.4.02 1.13.04 1.9.04.67 0 1.4 0 1.82-.03V.4zM48.46.78c.1.07.17.12.24.12.17 0 .25-.23.3-.73h.28c-.04.6-.05 1.44-.05 2.9h-.28c-.1-.96-.28-1.66-.9-2.17-.4-.37-1-.6-1.57-.6C44.73.3 44 2.34 44 4.44c0 2.9.82 4.16 2.3 4.16.38 0 .67-.12.85-.24.22-.16.3-.33.3-.63V6.56c0-1.1-.2-1.26-1.22-1.3v-.24c.5.03 1.4.04 2.05.04.68 0 1.25 0 1.6-.04v.24c-.44.04-.53.14-.53 1.03v2.37h-.24c0-.28-.1-.7-.34-.7-.12 0-.26.05-.65.26-.58.34-1.24.6-1.96.6-2.8 0-4.28-1.6-4.28-4.3 0-2.74 1.8-4.53 4.34-4.53 1.1 0 1.7.36 2.26.78zM54.27.4c-.76.04-.9.17-.9 1.04V7.4c0 .87.14 1 .9 1.02v.25c-.43-.03-1.14-.04-1.8-.04-.78 0-1.5 0-1.9.04v-.24c.76-.04.9-.16.9-1.04V1.43c0-.87-.15-1-.9-1.03V.18c.4.02 1.12.04 1.9.04.66 0 1.37 0 1.8-.03V.4zM62.3 2.2c0 .37 0 .7.03.92h-.27C61.66 1.1 61.02.45 59.9.45h-.26V7.3c0 .97.2 1.1 1.28 1.13v.24c-.5-.02-1.4-.04-2.3-.04s-1.7.02-2.18.04v-.24c1.07-.02 1.3-.16 1.3-1.13V.45h-.28c-1.13 0-1.75.65-2.16 2.67h-.28c.03-.22.04-.55.04-.9 0-.4-.02-1.24-.08-2.05 1.08.03 2.64.03 3.7.03s2.62 0 3.7-.03c-.06.8-.08 1.64-.08 2.04zM69.32 7.66c.23.57.53.75.76.77v.24c-.48-.03-1.17-.04-1.82-.04-.75 0-1.43 0-1.83.04v-.24c.57-.03.84-.1.84-.44 0-.15-.05-.34-.14-.58l-.72-1.97h-2.6l-.32.83c-.23.6-.33 1-.33 1.33 0 .64.4.8 1.07.83v.23l-1.5-.03c-.35 0-.68 0-.92.03v-.24c.36-.06.7-.37 1.05-1.26L65.58.14c.13.02.27.02.4.02.15 0 .3 0 .43-.02l2.92 7.52zm-4.2-5.68L63.9 5.2h2.42L65.12 2zM73.94.4c-.82.04-.97.17-.97 1.04v6.1c0 .75.12.85.75.85h.6c1.1 0 1.94-1.1 2.17-2.7h.27c-.02.3-.04.66-.04 1.07 0 .37.02 1.15.1 1.9-.83-.04-1.95-.04-2.76-.04-.8 0-2.6 0-3.9.04v-.24c.75-.04.9-.16.9-1.04V1.43c0-.87-.15-1-.9-1.03V.18c.4.02 1.1.04 1.88.04.7 0 1.44 0 1.9-.03V.4zM86.68.78c.1.07.17.1.24.1.17 0 .26-.22.3-.7h.28c-.03.6-.04 1.43-.04 2.9h-.28c-.13-1.1-.3-1.7-.9-2.18-.4-.4-.96-.6-1.52-.6-1.73 0-2.4 2.02-2.4 4.14 0 2.15.73 4.1 2.44 4.1.53 0 1.1-.2 1.5-.58.62-.48.76-1.15.88-2.32h.28c0 1.53 0 2.4.04 3.03h-.27c-.05-.5-.12-.7-.3-.7-.07 0-.15.02-.25.1-.58.4-1.18.77-2.2.77-2.56 0-4.25-1.6-4.25-4.35 0-2.7 1.75-4.5 4.25-4.5 1.05 0 1.68.38 2.2.78zM92.3.4c-.77.04-.9.17-.9 1.04V7.4c0 .87.13 1 .9 1.02v.25c-.44-.03-1.15-.04-1.82-.04-.77 0-1.5 0-1.9.04v-.24c.77-.04.9-.16.9-1.04V1.43c0-.87-.14-1-.9-1.03V.18c.4.02 1.13.04 1.9.04.67 0 1.38 0 1.82-.03V.4zM99.57.78c.1.07.17.1.23.1.17 0 .27-.22.3-.7h.3c-.05.6-.06 1.43-.06 2.9h-.28c-.13-1.1-.28-1.7-.9-2.18-.4-.4-.95-.6-1.52-.6-1.72 0-2.4 2.02-2.4 4.14 0 2.15.73 4.1 2.45 4.1.5 0 1.1-.2 1.48-.58.62-.48.77-1.15.88-2.32h.28c0 1.53 0 2.4.05 3.03h-.3c-.03-.5-.1-.7-.28-.7-.07 0-.15.02-.25.1-.6.4-1.2.77-2.22.77-2.54 0-4.23-1.6-4.23-4.35 0-2.7 1.75-4.5 4.24-4.5 1.06 0 1.68.38 2.2.78zM110.07 4.35c0 2.68-1.76 4.5-4.25 4.5-2.54 0-4.24-1.6-4.24-4.36 0-2.7 1.76-4.5 4.25-4.5 2.54 0 4.24 1.6 4.24 4.35zm-6.5.1c0 2.55 1.03 4.17 2.3 4.17 1.34 0 2.2-1.74 2.2-4.23 0-2.56-1.02-4.18-2.3-4.18-1.33 0-2.2 1.74-2.2 4.22zM117.7.78c.08.07.17.12.24.12.16 0 .25-.23.3-.73h.27c-.02.6-.04 1.44-.04 2.9h-.27c-.12-.96-.3-1.66-.9-2.17-.4-.37-1-.6-1.58-.6-1.75 0-2.5 2.03-2.5 4.13 0 2.9.83 4.16 2.32 4.16.38 0 .66-.12.85-.24.2-.16.28-.33.28-.63V6.56c0-1.1-.2-1.26-1.2-1.3v-.24c.48.03 1.4.04 2.04.04.67 0 1.25 0 1.6-.04v.24c-.45.04-.54.14-.54 1.03v2.37h-.24c0-.28-.1-.7-.35-.7-.13 0-.27.05-.65.26-.6.34-1.25.6-1.97.6-2.8 0-4.3-1.6-4.3-4.3 0-2.74 1.82-4.53 4.36-4.53 1.1 0 1.7.36 2.26.78zM127.7.4c-.76.1-.9.43-.9 1.6v6.7c-.08-.02-.18-.02-.28-.02h-.33L121 2.1V6.7c0 1.3.1 1.62 1.16 1.73v.24c-.32-.03-.87-.04-1.3-.04-.38 0-.8 0-1.05.04v-.24c.78-.1.9-.43.9-1.6v-5.4c0-.86-.13-1-.9-1.02V.18c.26.02.68.04 1.05.04.4 0 .76 0 1.04-.03l4.63 5.72V2.13c0-1.32-.1-1.62-1.16-1.73V.18c.3.02.86.04 1.3.04.37 0 .8 0 1.04-.03V.4zM135.24 7.66c.22.57.53.75.76.77v.24c-.48-.03-1.17-.04-1.83-.04-.74 0-1.43 0-1.82.04v-.24c.57-.03.84-.1.84-.44 0-.15-.06-.34-.15-.58l-.72-1.97h-2.6l-.33.83c-.23.6-.33 1.02-.33 1.33 0 .65.4.8 1.07.83v.24c-.55-.03-1-.04-1.5-.04-.35 0-.68 0-.92.04v-.24c.36-.07.7-.38 1.05-1.26L131.5.15H132.33l2.9 7.5zm-4.2-5.68l-1.23 3.23h2.44L131.04 2zM144.2 8.14c-.42.5-.88.7-1.58.7-.86 0-1.44-.3-1.63-1.3l-.22-1.2c-.17-1-.37-1.7-1.12-1.7h-.78v2.75c0 .87.15 1 .9 1.03v.24c-.43-.03-1.14-.04-1.8-.04-.78 0-1.5 0-1.9.04v-.24c.76-.04.9-.16.9-1.04V1.43c0-.87-.15-1-.9-1.03V.18c.4.02 1.14.04 1.82.04l1.9-.02c2.22 0 3.3.77 3.3 2.1 0 .96-.58 2.07-2.7 2.3h.02c1.45.13 2.1.6 2.3 1.6L143 7.4c.13.64.26.87.56.87.2 0 .33-.1.5-.28l.15.14zm-5.32-6.7V4.4h.52c1.42 0 1.72-.9 1.72-2 0-1.26-.4-2-1.5-2-.6 0-.74.2-.74 1.04z"/><path d="M151.3 7.66c.23.57.53.75.76.77v.24c-.47-.03-1.16-.04-1.82-.04-.74 0-1.43 0-1.83.04v-.24c.6-.03.86-.1.86-.44 0-.15-.05-.34-.14-.58l-.73-1.97h-2.6l-.34.83c-.22.6-.32 1.02-.32 1.33 0 .65.4.8 1.06.83v.24c-.54-.03-1-.04-1.5-.04-.34 0-.67 0-.9.04v-.24c.34-.07.7-.38 1.03-1.26l2.73-7.02H148.38l2.93 7.5zm-4.18-5.68l-1.25 3.23h2.44L147.13 2zM158.96.4c-.8.04-.97.17-.97 1.04v6.1c0 .75.1.85.75.85h.58c1.1 0 1.95-1.1 2.2-2.7h.26c-.03.3-.04.66-.04 1.07 0 .37 0 1.15.08 1.9-.8-.04-1.94-.04-2.75-.04-.8 0-2.6 0-3.9.04v-.24c.75-.04.88-.16.88-1.04V1.43c0-.87-.14-1-.9-1.03V.18c.4.02 1.13.04 1.9.04.7 0 1.44 0 1.9-.03V.4zM166.22.4c-.76.04-.9.17-.9 1.04V7.4c0 .87.14 1 .9 1.02v.25c-.43-.03-1.14-.04-1.8-.04-.78 0-1.5 0-1.9.04v-.24c.76-.04.9-.16.9-1.04V1.43c0-.87-.15-1-.9-1.03V.18c.4.02 1.12.04 1.9.04.66 0 1.37 0 1.8-.03V.4zM171.3 4.2c2.25.17 3.02 1.17 3.02 2.14 0 1.5-1.25 2.33-3.3 2.33-.38 0-1.13-.04-2.15-.04-.7 0-1.44 0-1.84.04v-.24c.76-.04.9-.16.9-1.03V1.44c0-.87-.15-1-.9-1.03V.18c.4.02 1.14.04 1.82.04l1.88-.02c1.98 0 2.97.78 2.97 1.9 0 .84-.72 1.8-2.4 2.1v.02zm-1.47-2.76v2.7h.52c1.13 0 1.4-.9 1.4-1.94 0-1.18-.32-1.8-1.17-1.8-.62 0-.75.2-.75 1.04zm2.5 4.85c0-1.23-.57-1.94-2-1.94h-.5V7.4c0 .83.15 1 .83 1 1.17 0 1.67-.77 1.67-2.1zM183.18 8.14c-.43.5-.9.7-1.6.7-.85 0-1.43-.3-1.62-1.3l-.2-1.2c-.18-1-.38-1.7-1.13-1.7h-.77v2.75c0 .87.14 1 .9 1.03v.24c-.44-.03-1.15-.04-1.82-.04-.77 0-1.5 0-1.9.04v-.24c.77-.04.9-.16.9-1.04V1.43c0-.87-.14-1-.9-1.03V.18c.4.02 1.16.04 1.83.04l1.9-.02c2.22 0 3.3.77 3.3 2.1 0 .96-.58 2.07-2.7 2.3h.02c1.44.13 2.08.6 2.3 1.6l.26 1.23c.14.64.27.87.57.87.2 0 .34-.1.5-.28l.15.14zm-5.33-6.7V4.4h.52c1.42 0 1.72-.9 1.72-2 0-1.26-.4-2-1.5-2-.62 0-.75.2-.75 1.04z"/><path d="M190.28 7.66c.22.57.52.75.75.77v.24c-.47-.03-1.16-.04-1.82-.04-.73 0-1.42 0-1.82.04v-.24c.58-.03.85-.1.85-.44 0-.15-.05-.34-.14-.58l-.74-1.97h-2.6l-.32.83c-.23.6-.33 1.02-.33 1.33 0 .65.42.8 1.07.83v.24c-.54-.03-1-.04-1.5-.04-.34 0-.67 0-.9.04v-.24c.34-.07.7-.38 1.03-1.26l2.73-7.02H187.35l2.93 7.5zm-4.2-5.68l-1.24 3.23h2.44L186.08 2zM199.25 8.14c-.43.5-.9.7-1.6.7-.86 0-1.44-.3-1.62-1.3l-.2-1.2c-.2-1-.38-1.7-1.13-1.7h-.78v2.75c0 .87.14 1 .9 1.03v.24c-.43-.03-1.14-.04-1.8-.04-.78 0-1.5 0-1.9.04v-.24c.76-.04.9-.16.9-1.03V1.44c0-.87-.15-1-.9-1.03V.18c.4.02 1.14.04 1.82.04l1.88-.02c2.24 0 3.33.77 3.33 2.1 0 .96-.6 2.07-2.7 2.3 1.46.13 2.1.6 2.3 1.6l.28 1.23c.14.64.27.87.57.87.2 0 .33-.1.48-.28l.17.14zm-5.33-6.7V4.4h.52c1.4 0 1.7-.9 1.7-2 0-1.26-.38-2-1.47-2-.62 0-.75.2-.75 1.04zM205.97.16V.4c-.35.14-.7.52-1.15 1.4l-1.42 2.8v2.8c0 .87.14 1 .9 1.03v.24c-.43-.03-1.18-.04-1.85-.04-.74 0-1.47 0-1.86.04v-.24c.76-.04.9-.16.9-1.03V5.36l-2.32-4.28c-.3-.53-.53-.66-.7-.66V.16c.43.04.87.06 1.42.06.7 0 1.57-.02 2.26-.06v.26c-.48 0-.9.04-.9.35 0 .07 0 .16.07.27l1.82 3.5.94-1.86c.3-.65.46-1.13.46-1.48 0-.57-.4-.78-1-.8V.16c.54.03 1 .04 1.5.04.35 0 .67 0 .9-.04z"/></svg>